<mxfile host="app.diagrams.net" agent="Mozilla/5.0 (X11; Linux x86_64; rv:109.0) Gecko/20100101 Firefox/115.0" version="28.0.7">
  <diagram id="C5RBs43oDa-KdzZeNtuy" name="Page-1">
    <mxGraphModel dx="1213" dy="701" grid="1" gridSize="10" guides="1" tooltips="1" connect="1" arrows="1" fold="1" page="1" pageScale="1" pageWidth="3300" pageHeight="4681" math="0" shadow="0">
      <root>
        <mxCell id="WIyWlLk6GJQsqaUBKTNV-0" />
        <mxCell id="WIyWlLk6GJQsqaUBKTNV-1" parent="WIyWlLk6GJQsqaUBKTNV-0" />
        <mxCell id="uTj_L4GP4vtBzImo_Wq9-3" style="edgeStyle=orthogonalEdgeStyle;rounded=0;orthogonalLoop=1;jettySize=auto;html=1;exitX=0.5;exitY=1;exitDx=0;exitDy=0;entryX=0.5;entryY=0;entryDx=0;entryDy=0;" parent="WIyWlLk6GJQsqaUBKTNV-1" source="uTj_L4GP4vtBzImo_Wq9-0" target="uTj_L4GP4vtBzImo_Wq9-2" edge="1">
          <mxGeometry relative="1" as="geometry" />
        </mxCell>
        <mxCell id="uTj_L4GP4vtBzImo_Wq9-0" value="转账开始" style="ellipse;whiteSpace=wrap;html=1;" parent="WIyWlLk6GJQsqaUBKTNV-1" vertex="1">
          <mxGeometry x="360" y="120" width="80" height="40" as="geometry" />
        </mxCell>
        <mxCell id="uTj_L4GP4vtBzImo_Wq9-1" value="转账结束" style="ellipse;whiteSpace=wrap;html=1;" parent="WIyWlLk6GJQsqaUBKTNV-1" vertex="1">
          <mxGeometry x="360" y="720" width="80" height="40" as="geometry" />
        </mxCell>
        <mxCell id="uTj_L4GP4vtBzImo_Wq9-2" value="发起转账，扣除发起者账户余额" style="rounded=0;whiteSpace=wrap;html=1;" parent="WIyWlLk6GJQsqaUBKTNV-1" vertex="1">
          <mxGeometry x="340" y="190" width="120" height="60" as="geometry" />
        </mxCell>
        <mxCell id="uTj_L4GP4vtBzImo_Wq9-6" style="edgeStyle=orthogonalEdgeStyle;rounded=0;orthogonalLoop=1;jettySize=auto;html=1;exitX=0.5;exitY=1;exitDx=0;exitDy=0;entryX=0.5;entryY=0;entryDx=0;entryDy=0;" parent="WIyWlLk6GJQsqaUBKTNV-1" source="uTj_L4GP4vtBzImo_Wq9-4" target="uTj_L4GP4vtBzImo_Wq9-7" edge="1">
          <mxGeometry relative="1" as="geometry">
            <mxPoint x="400" y="400" as="targetPoint" />
          </mxGeometry>
        </mxCell>
        <mxCell id="uTj_L4GP4vtBzImo_Wq9-4" value="定期查询未发送的转账记录" style="rounded=0;whiteSpace=wrap;html=1;" parent="WIyWlLk6GJQsqaUBKTNV-1" vertex="1">
          <mxGeometry x="340" y="300" width="120" height="60" as="geometry" />
        </mxCell>
        <mxCell id="uTj_L4GP4vtBzImo_Wq9-9" style="edgeStyle=orthogonalEdgeStyle;rounded=0;orthogonalLoop=1;jettySize=auto;html=1;exitX=0.5;exitY=1;exitDx=0;exitDy=0;entryX=0.5;entryY=0;entryDx=0;entryDy=0;" parent="WIyWlLk6GJQsqaUBKTNV-1" source="uTj_L4GP4vtBzImo_Wq9-7" target="uTj_L4GP4vtBzImo_Wq9-29" edge="1">
          <mxGeometry relative="1" as="geometry">
            <mxPoint x="400" y="500" as="targetPoint" />
          </mxGeometry>
        </mxCell>
        <mxCell id="uTj_L4GP4vtBzImo_Wq9-10" value="成功（发布者确认）" style="edgeLabel;html=1;align=center;verticalAlign=middle;resizable=0;points=[];" parent="uTj_L4GP4vtBzImo_Wq9-9" vertex="1" connectable="0">
          <mxGeometry x="-0.1" y="-1" relative="1" as="geometry">
            <mxPoint x="1" y="-5" as="offset" />
          </mxGeometry>
        </mxCell>
        <mxCell id="uTj_L4GP4vtBzImo_Wq9-12" style="edgeStyle=orthogonalEdgeStyle;rounded=0;orthogonalLoop=1;jettySize=auto;html=1;exitX=1;exitY=0.5;exitDx=0;exitDy=0;entryX=0;entryY=0.5;entryDx=0;entryDy=0;" parent="WIyWlLk6GJQsqaUBKTNV-1" source="uTj_L4GP4vtBzImo_Wq9-7" target="uTj_L4GP4vtBzImo_Wq9-11" edge="1">
          <mxGeometry relative="1" as="geometry" />
        </mxCell>
        <mxCell id="uTj_L4GP4vtBzImo_Wq9-13" value="失败" style="edgeLabel;html=1;align=center;verticalAlign=middle;resizable=0;points=[];" parent="uTj_L4GP4vtBzImo_Wq9-12" vertex="1" connectable="0">
          <mxGeometry x="-0.24" y="-1" relative="1" as="geometry">
            <mxPoint as="offset" />
          </mxGeometry>
        </mxCell>
        <mxCell id="uTj_L4GP4vtBzImo_Wq9-7" value="&lt;div&gt;发送转账记录&lt;/div&gt;" style="rhombus;whiteSpace=wrap;html=1;" parent="WIyWlLk6GJQsqaUBKTNV-1" vertex="1">
          <mxGeometry x="317.5" y="395" width="165" height="90" as="geometry" />
        </mxCell>
        <mxCell id="Nz396IvyJtMQi-NrtlgB-0" style="edgeStyle=orthogonalEdgeStyle;rounded=0;orthogonalLoop=1;jettySize=auto;html=1;exitX=0.5;exitY=1;exitDx=0;exitDy=0;entryX=0.5;entryY=0;entryDx=0;entryDy=0;" parent="WIyWlLk6GJQsqaUBKTNV-1" source="uTj_L4GP4vtBzImo_Wq9-8" target="uTj_L4GP4vtBzImo_Wq9-1" edge="1">
          <mxGeometry relative="1" as="geometry" />
        </mxCell>
        <mxCell id="uTj_L4GP4vtBzImo_Wq9-8" value="&lt;div align=&quot;left&quot;&gt;1.消费转账记录，为收款账户添加余额。&lt;/div&gt;&lt;div align=&quot;left&quot;&gt;2.消息确认回调，修改转账记录为成功。&lt;/div&gt;&lt;div align=&quot;left&quot;&gt;3.消息确认&lt;/div&gt;&lt;div align=&quot;left&quot;&gt;步骤1，2执行后先提交事务，再ack。可能出现1，2执行成功ack失败。所以步骤1，2要做幂等性设计&lt;br&gt;&lt;/div&gt;" style="rounded=0;whiteSpace=wrap;html=1;align=left;" parent="WIyWlLk6GJQsqaUBKTNV-1" vertex="1">
          <mxGeometry x="282.5" y="610" width="237.5" height="90" as="geometry" />
        </mxCell>
        <mxCell id="uTj_L4GP4vtBzImo_Wq9-11" value="记录一下报错，但是没修改数据库不影响。转账记录状态还是未发送，可以再下次定时任务执行时再次被处理" style="rounded=0;whiteSpace=wrap;html=1;" parent="WIyWlLk6GJQsqaUBKTNV-1" vertex="1">
          <mxGeometry x="550" y="405" width="220" height="70" as="geometry" />
        </mxCell>
        <mxCell id="uTj_L4GP4vtBzImo_Wq9-18" value="&lt;h1 style=&quot;margin-top: 0px;&quot;&gt;转账流程问题汇总及解决方案&lt;br&gt;&lt;/h1&gt;&lt;p&gt;Q1.发送转账记录失败怎么办&lt;/p&gt;&lt;p&gt;A1：在Q2的解决方法下，发送转账记录到mq失败也不影响&lt;/p&gt;&lt;p&gt;Q2.出现消息堆积。如果发送过的转账记录没被消费，状态没变成成功，那又会再一次发送这条转账记录到mq&lt;/p&gt;&lt;p&gt;A2：新增一个转账记录状态&quot;转账记录成功发送到mq&quot;，用3表达。因为需要发送到MQ的转账记录统计的是状态为2。（&lt;span style=&quot;color: rgb(255, 0, 0);&quot;&gt;错误的想法&lt;/span&gt;）&lt;/p&gt;&lt;p&gt;A2：运行这种情况发生，但是消息消费需要实现幂等性&lt;br&gt;&lt;/p&gt;&lt;p&gt;&lt;br&gt;&lt;/p&gt;&lt;p&gt;&lt;br&gt;&lt;/p&gt;" style="text;html=1;whiteSpace=wrap;overflow=hidden;rounded=0;labelBorderColor=default;" parent="WIyWlLk6GJQsqaUBKTNV-1" vertex="1">
          <mxGeometry x="680" y="100" width="540" height="240" as="geometry" />
        </mxCell>
        <mxCell id="uTj_L4GP4vtBzImo_Wq9-28" value="&lt;h1 style=&quot;margin-top: 0px;&quot;&gt;&lt;font style=&quot;font-size: 17px;&quot;&gt;转账记录状态说明&lt;/font&gt;&lt;br&gt;&lt;/h1&gt;&lt;p&gt;0：成功&lt;/p&gt;&lt;p&gt;1：失败&lt;/p&gt;&lt;p&gt;2：转账记录未发送&lt;/p&gt;" style="text;html=1;whiteSpace=wrap;overflow=hidden;rounded=0;labelBorderColor=default;" parent="WIyWlLk6GJQsqaUBKTNV-1" vertex="1">
          <mxGeometry x="110" y="320" width="150" height="180" as="geometry" />
        </mxCell>
        <mxCell id="uTj_L4GP4vtBzImo_Wq9-30" style="edgeStyle=orthogonalEdgeStyle;rounded=0;orthogonalLoop=1;jettySize=auto;html=1;entryX=0.5;entryY=0;entryDx=0;entryDy=0;" parent="WIyWlLk6GJQsqaUBKTNV-1" source="uTj_L4GP4vtBzImo_Wq9-29" target="uTj_L4GP4vtBzImo_Wq9-8" edge="1">
          <mxGeometry relative="1" as="geometry" />
        </mxCell>
        <mxCell id="uTj_L4GP4vtBzImo_Wq9-29" value="&lt;div&gt;通过回调将转&lt;/div&gt;&lt;div&gt;账记录状态修改成3&lt;/div&gt;" style="rounded=0;whiteSpace=wrap;html=1;" parent="WIyWlLk6GJQsqaUBKTNV-1" vertex="1">
          <mxGeometry x="340" y="520" width="120" height="60" as="geometry" />
        </mxCell>
      </root>
    </mxGraphModel>
  </diagram>
</mxfile>
